# xmcd CD database file
#
# Track frame offsets:
#	150
#	18152
#	35211
#	51512
#	65043
#	83807
#	101636
#	123619
#	136341
#	157522
#	171447
#	190540
#	203512
#	220828
#	235948
#	252694
#	264446
#	281654
#	298523
#	315880
#
# Disc length: 4639 seconds
#
# Revision: 4
# Processed by: cddbd v1.5.1PL0 Copyright (c) Steve Scherf et al.
# Submitted via: CDex 1.50beta9
#
DISCID=23121d14
DTITLE=The Carpenters - Their Greatest Hits
DYEAR=1990
DGENRE=Country
TTITLE0=Yesterday once more
TTITLE1=Superstar
TTITLE2=Rainy days and mondays
TTITLE3=Top of the world
TTITLE4=Ticket to ride
TTITLE5=Goodbye to love
TTITLE6=This masquerade
TTITLE7=Hurting each other
TTITLE8=Solitaire
TTITLE9=We've only just begun
TTITLE10=Those good old dreams
TTITLE11=Please mr postman
TTITLE12=I won't last a day without you
TTITLE13=Touch me when we're dancing
TTITLE14=Jambalaya (On the Bayou)
TTITLE15=For all we know
TTITLE16=All you get from love is a lovesong
TTITLE17=(They long to be) Close to you
TTITLE18=Only yesterday
TTITLE19=Calling occupants of interplanetary Craft (The recognized anthem of world contact day)
EXTD=YEAR: 1990
EXTT0=
EXTT1=
EXTT2=
EXTT3=
EXTT4=
EXTT5=
EXTT6=
EXTT7=
EXTT8=
EXTT9=
EXTT10=
EXTT11=
EXTT12=
EXTT13=
EXTT14=
EXTT15=
EXTT16=
EXTT17=
EXTT18=
EXTT19=
PLAYORDER=
